<?xml version="1.0" standalone="no"?>
<!DOCTYPE svg PUBLIC "-//W3C//DTD SVG 20010904//EN"
 "http://www.w3.org/TR/2001/REC-SVG-20010904/DTD/svg10.dtd">
<svg version="1.0" xmlns="http://www.w3.org/2000/svg"
 width="500.000000pt" height="500.000000pt" viewBox="0 0 500.000000 500.000000"
 preserveAspectRatio="xMidYMid meet">

<g transform="translate(0.000000,500.000000) scale(0.100000,-0.100000)"
fill="#000000" stroke="none">
<path d="M0 2500 l0 -2500 2500 0 2500 0 0 2500 0 2500 -2500 0 -2500 0 0
-2500z m2615 2388 c26 -11 30 -22 26 -70 -2 -24 2 -28 23 -28 23 0 26 -4 26
-35 0 -31 -3 -35 -25 -35 -22 0 -25 -4 -25 -40 0 -22 1 -40 3 -40 1 0 20 7 42
15 122 44 246 -23 276 -147 20 -87 1 -161 -63 -233 -40 -46 -87 -70 -175 -88
-84 -17 -93 -22 -93 -48 0 -12 7 -19 20 -19 16 0 20 -7 20 -35 l0 -35 -90 0
-90 0 0 35 c0 29 4 35 21 35 16 0 20 5 17 28 -3 25 -7 27 -58 33 -157 18 -260
124 -260 269 0 84 28 143 88 185 39 27 52 30 115 30 40 0 82 -4 95 -8 20 -8
22 -5 22 27 0 33 -2 36 -30 36 -28 0 -30 3 -30 34 0 32 3 35 33 38 30 3 32 5
29 36 -2 22 3 40 14 53 20 22 33 23 69 7z m55 -884 c0 -9 -7 -22 -15 -28 -13
-9 -17 -72 -25 -406 -5 -217 -10 -421 -10 -452 0 -65 -18 -91 -59 -86 -16 2
-30 12 -36 28 -7 17 -9 168 -5 468 5 415 4 443 -12 448 -10 3 -18 14 -18 25 0
17 8 19 90 19 77 0 90 -2 90 -16z m26 -629 c4 -10 20 -15 49 -15 29 0 45 5 49
15 3 10 19 15 46 15 l40 0 0 -55 c0 -50 -2 -55 -22 -55 -58 -1 -67 -53 -10
-58 31 -3 32 -4 32 -53 l0 -49 -44 0 c-36 0 -45 4 -49 21 -6 21 -7 21 -84 9
-2 0 -3 -7 -3 -15 0 -16 -45 -21 -54 -6 -3 5 -3 65 1 135 5 114 8 126 25 126
10 0 21 -7 24 -15z m-46 -405 c443 -6 811 -12 817 -15 10 -3 10 -10 1 -31
l-12 -26 -876 7 c-493 4 -883 11 -892 17 -10 5 -18 20 -18 33 0 30 -109 29
980 15z m617 -103 c2 -3 -8 -17 -24 -31 l-28 -26 -642 2 -641 3 -26 24 c-30
28 -32 38 -9 43 25 5 1364 -10 1370 -15z m-1074 -103 c42 -6 48 -10 67 -48 14
-30 20 -62 20 -112 0 -64 3 -73 28 -96 41 -39 65 -48 124 -48 66 0 219 24 246
39 11 6 54 48 95 94 40 46 94 102 119 125 43 40 48 42 108 42 l63 0 -49 -52
c-65 -69 -166 -201 -237 -308 -30 -47 -66 -95 -79 -107 -28 -25 -426 -274
-448 -280 -10 -2 -41 31 -90 93 -41 54 -90 115 -107 137 -46 55 -45 101 7 209
54 113 63 201 27 271 l-24 47 42 0 c23 0 63 -3 88 -6z m581 -125 c-105 -104
-125 -120 -149 -117 -27 3 -25 6 76 120 104 118 104 118 149 118 l45 0 -121
-121z m356 86 c0 -42 -208 -272 -314 -348 l-31 -22 29 50 c32 56 203 272 250
316 39 36 66 38 66 4z m-406 3 c-4 -7 -44 -55 -88 -105 -75 -87 -83 -93 -118
-93 -21 0 -38 4 -38 9 0 10 86 100 136 143 56 46 126 76 108 46z m-261 -235
c-13 -2 -33 -2 -45 0 -13 2 -3 4 22 4 25 0 35 -2 23 -4z m-392 -330 c40 -49
95 -114 121 -145 26 -31 48 -63 48 -71 0 -9 -14 -27 -31 -41 -24 -21 -34 -24
-50 -16 -27 15 -85 97 -159 223 -60 103 -62 108 -44 122 11 8 24 15 31 15 7 0
45 -39 84 -87z m-150 15 c25 -48 165 -256 222 -331 33 -43 56 -82 51 -86 -5
-5 -50 -38 -100 -75 -92 -66 -121 -80 -110 -50 3 9 6 19 6 24 0 4 27 25 60 46
75 49 78 69 16 142 -25 29 -77 104 -117 168 l-73 117 -68 -7 c-37 -3 -68 -2
-68 3 0 4 21 16 48 26 26 10 56 24 67 32 29 19 53 16 66 -9z m1956 -783 c53
-22 73 -44 73 -78 0 -64 -63 -92 -75 -34 -15 68 -73 97 -155 77 -38 -9 -58
-22 -84 -52 -43 -50 -58 -108 -58 -233 0 -189 59 -276 186 -277 66 -1 116 16
146 47 26 28 40 24 40 -9 0 -52 -88 -96 -192 -96 -131 0 -215 62 -258 190 -29
84 -25 239 7 311 35 80 97 137 173 160 45 13 159 10 197 -6z m-2937 -74 c0
-70 -2 -79 -17 -77 -12 2 -22 19 -31 48 -17 60 -37 70 -147 66 l-90 -3 0 -120
0 -120 113 -3 c103 -2 112 -4 112 -22 0 -18 -9 -20 -112 -22 l-113 -3 -3 -137
-3 -138 115 0 c111 0 115 1 135 25 11 14 23 39 26 55 5 21 13 30 26 30 17 0
19 -8 19 -75 l0 -75 -245 0 c-197 0 -245 3 -245 13 0 8 17 18 38 23 l37 9 3
260 c1 143 0 270 -3 282 -4 16 -15 24 -40 29 -20 3 -35 12 -35 20 0 12 40 14
230 14 l230 0 0 -79z m310 65 c0 -7 -13 -16 -29 -19 -56 -11 -55 -30 5 -208
30 -90 65 -200 78 -244 l24 -80 12 45 c6 25 40 130 76 234 36 103 64 200 62
215 -2 21 -10 28 -40 35 -21 5 -38 15 -38 23 0 10 25 13 110 13 83 0 110 -3
110 -13 0 -7 -15 -17 -32 -22 -38 -11 -28 11 -162 -375 l-81 -235 -35 -3 -35
-3 -47 139 c-160 469 -166 482 -210 482 -10 0 -18 7 -18 15 0 13 21 15 125 15
99 0 125 -3 125 -14z m744 -217 c141 -385 134 -369 172 -385 61 -26 39 -34
-91 -34 -104 0 -125 2 -125 15 0 9 9 15 23 15 51 0 58 34 26 128 l-21 62 -123
0 -122 0 -22 -59 c-34 -95 -24 -131 38 -131 12 0 21 -7 21 -15 0 -12 -19 -15
-110 -15 -91 0 -110 3 -110 15 0 8 9 15 20 15 34 0 56 38 115 198 31 86 80
217 107 290 l51 133 34 -3 35 -3 82 -226z m506 217 c0 -8 -15 -17 -35 -20 -26
-5 -39 -14 -45 -32 -13 -33 -13 -284 -1 -284 11 0 197 210 224 252 23 37 21
53 -8 66 -49 22 -27 32 75 32 110 0 129 -12 66 -42 -36 -18 -212 -212 -210
-233 1 -7 45 -74 98 -148 91 -127 153 -197 176 -197 6 0 10 -7 10 -16 0 -14
-10 -16 -59 -12 -32 2 -69 11 -83 20 -13 9 -64 75 -114 147 -49 71 -94 130
-100 131 -6 0 -27 -12 -48 -27 l-37 -28 3 -93 c3 -101 14 -122 65 -122 14 0
23 -6 23 -15 0 -13 -21 -15 -130 -15 -101 0 -130 3 -130 13 0 8 17 18 38 23
l37 9 3 260 c1 143 0 270 -3 282 -4 16 -15 24 -40 29 -20 3 -35 12 -35 20 0
11 26 14 130 14 104 0 130 -3 130 -14z m845 -55 c8 -76 4 -90 -23 -87 -11 2
-18 13 -20 34 -2 16 -14 42 -27 56 -23 24 -30 26 -120 26 l-95 0 0 -125 0
-125 110 0 c103 0 110 -1 110 -20 0 -19 -7 -20 -110 -20 l-110 0 0 -140 0
-140 108 0 c127 0 149 10 158 71 6 33 10 39 30 39 21 0 24 -5 24 -37 0 -21 -3
-55 -6 -75 l-7 -38 -243 0 c-210 0 -244 2 -244 15 0 9 9 15 25 15 14 0 34 9
45 20 19 19 20 33 20 275 0 242 -1 256 -20 275 -11 11 -31 20 -45 20 -16 0
-25 6 -25 15 0 13 32 15 229 15 l229 0 7 -69z m945 55 c0 -8 -15 -17 -35 -20
-19 -4 -39 -15 -45 -26 -5 -10 -10 -66 -10 -125 l0 -106 153 3 152 3 0 113 c0
122 -2 126 -57 139 -16 3 -28 12 -28 19 0 11 26 14 130 14 109 0 130 -2 130
-15 0 -8 -9 -15 -20 -15 -12 0 -32 -11 -45 -25 l-25 -24 1 -238 c1 -131 4
-249 8 -263 5 -18 17 -28 44 -34 20 -5 37 -15 37 -23 0 -10 -29 -13 -130 -13
-109 0 -130 2 -130 15 0 9 9 15 23 15 12 0 31 7 42 16 18 13 20 27 20 142 l0
127 -152 3 -153 3 0 -126 c0 -112 2 -127 20 -145 11 -11 31 -20 45 -20 16 0
25 -6 25 -15 0 -13 -21 -15 -130 -15 -109 0 -130 2 -130 15 0 8 8 15 18 15 10
0 28 7 40 16 22 15 22 18 22 279 0 261 0 264 -22 279 -12 9 -30 16 -40 16 -10
0 -18 7 -18 15 0 13 21 15 130 15 104 0 130 -3 130 -14z m-3193 -888 c23 -21
31 -48 14 -48 -5 0 -16 11 -25 25 -18 28 -52 33 -81 11 -12 -9 -19 -30 -23
-67 -3 -45 0 -59 18 -81 27 -35 54 -35 86 -1 27 29 42 26 24 -7 -24 -45 -90
-48 -130 -4 -43 45 -23 174 28 187 39 10 67 6 89 -15z m287 -4 c22 -23 26 -35
26 -84 0 -64 -22 -103 -64 -114 -64 -16 -112 42 -103 128 8 88 85 126 141 70z
m236 -59 l55 -84 5 81 c3 53 9 83 18 86 9 3 12 -23 12 -107 0 -87 -3 -111 -14
-111 -7 0 -38 37 -67 82 l-54 82 -3 -82 c-2 -64 -6 -82 -17 -82 -12 0 -15 20
-15 110 0 81 3 110 13 110 6 0 37 -38 67 -85z m357 63 c21 -20 31 -48 17 -48
-3 0 -15 11 -26 25 -43 54 -108 11 -108 -72 0 -33 6 -50 25 -68 32 -33 51 -31
86 6 25 27 29 28 29 12 0 -30 -36 -57 -77 -57 -54 0 -83 39 -83 110 0 48 4 60
29 85 36 35 75 38 108 7z m183 -88 c0 -91 -3 -110 -15 -110 -12 0 -15 19 -15
110 0 91 3 110 15 110 12 0 15 -19 15 -110z m270 100 c0 -5 -25 -10 -55 -10
l-55 0 0 -40 0 -40 51 0 c31 0 48 -4 44 -10 -3 -5 -26 -10 -51 -10 l-44 0 0
-40 0 -40 55 0 c30 0 55 -4 55 -10 0 -6 -30 -10 -70 -10 l-70 0 0 110 0 110
70 0 c40 0 70 -4 70 -10z m244 -11 c31 -25 34 -61 6 -89 l-20 -20 21 -41 c11
-23 17 -44 14 -47 -7 -7 -20 8 -47 57 -12 22 -24 31 -43 31 -23 0 -25 -3 -25
-45 0 -33 -4 -45 -15 -45 -12 0 -15 19 -15 110 l0 110 49 0 c34 0 56 -6 75
-21z m286 1 c11 -11 20 -28 20 -37 0 -14 -5 -12 -25 10 -25 26 -58 34 -82 19
-21 -13 -35 -66 -28 -110 8 -52 39 -77 85 -67 25 5 30 11 30 36 0 24 -4 29
-25 29 -14 0 -25 5 -25 10 0 6 18 10 40 10 39 0 40 -1 40 -34 0 -40 -18 -62
-59 -71 -38 -8 -89 17 -101 51 -13 34 -13 98 1 128 21 46 94 61 129 26z m290
11 c0 -6 -24 -11 -52 -13 l-53 -3 -3 -37 -3 -38 50 0 c28 0 51 -4 51 -10 0 -5
-22 -10 -50 -10 l-50 0 0 -40 0 -40 55 0 c30 0 55 -4 55 -10 0 -6 -28 -10 -65
-10 l-65 0 0 110 0 110 65 0 c36 0 65 -4 65 -9z m240 -6 c24 -13 30 -22 30
-49 0 -20 -8 -40 -20 -51 -20 -18 -20 -18 5 -62 17 -29 22 -43 13 -43 -7 0
-24 20 -37 45 -20 37 -29 45 -52 45 -28 0 -29 -2 -29 -46 0 -28 -4 -44 -11
-42 -8 3 -15 123 -10 201 1 22 69 24 111 2z m188 -98 c2 -91 0 -107 -13 -107
-13 0 -15 18 -15 111 0 84 3 110 13 107 8 -3 13 -37 15 -111z m272 103 c0 -5
-25 -10 -55 -10 l-55 0 0 -40 0 -40 45 0 c25 0 45 -4 45 -10 0 -5 -20 -10 -45
-10 l-45 0 0 -40 0 -40 55 0 c30 0 55 -4 55 -10 0 -6 -30 -10 -70 -10 l-70 0
0 110 0 110 70 0 c40 0 70 -4 70 -10z"/>
<path d="M2322 4556 c-35 -41 -46 -82 -38 -140 8 -54 51 -100 126 -135 50 -24
66 -26 180 -26 106 0 132 4 172 22 114 52 151 201 71 285 -22 23 -35 28 -76
28 -57 0 -96 -20 -120 -62 -23 -39 -22 -58 4 -58 29 0 59 -18 59 -35 0 -8 -11
-21 -23 -30 -19 -12 -30 -13 -56 -4 -25 9 -43 9 -72 0 -48 -15 -82 -1 -77 32
2 17 13 24 46 31 48 11 50 18 22 64 -25 40 -73 62 -139 62 -43 0 -52 -4 -79
-34z"/>
<path d="M1845 1282 c-3 -16 -26 -82 -51 -147 -24 -64 -44 -119 -44 -121 0 -2
48 -4 106 -4 97 0 106 1 99 18 -4 9 -26 75 -50 145 -23 70 -45 130 -48 133 -3
3 -8 -8 -12 -24z"/>
<path d="M1287 482 c-21 -22 -23 -120 -4 -144 23 -30 55 -31 82 -4 34 34 36
115 3 146 -27 25 -60 26 -81 2z"/>
<path d="M2580 454 l0 -45 41 3 c33 2 44 8 50 26 11 30 -20 62 -61 62 -29 0
-30 -2 -30 -46z"/>
<path d="M3400 455 l0 -45 39 0 c45 0 66 19 57 54 -6 24 -30 36 -73 36 -21 0
-23 -5 -23 -45z"/>
</g>
</svg>
